<?xml version="1.0" encoding="utf-8"?>
<!-- Generator: Adobe Illustrator 21.1.0, SVG Export Plug-In . SVG Version: 6.00 Build 0)  -->
<svg version="1.1"
	 id="Layer_1" xmlns:cc="http://creativecommons.org/ns#" xmlns:dc="http://purl.org/dc/elements/1.1/" xmlns:inkscape="http://www.inkscape.org/namespaces/inkscape" xmlns:rdf="http://www.w3.org/1999/02/22-rdf-syntax-ns#" xmlns:sodipodi="http://sodipodi.sourceforge.net/DTD/sodipodi-0.dtd" xmlns:svg="http://www.w3.org/2000/svg"
	 xmlns="http://www.w3.org/2000/svg" xmlns:xlink="http://www.w3.org/1999/xlink" x="0px" y="0px" viewBox="0 0 100 100"
	 style="enable-background:new 0 0 100 100;" xml:space="preserve">
<g>
	<path d="M69.1,15c-3.5,0.1-6.9,1.7-9.2,4.7c-1.9,2.5-2.6,5.4-2.3,8.4h0c0.7,3.6,0.9,7.5-1.3,10.5c-2,2.7-5.4,3.4-8.6,3.9
		c-2.6,0.4-5.1,1.7-6.9,3.8l17.7,13.6c1.6-2.3,2.3-5.1,1.9-7.7c-0.4-3.2-0.6-6.7,1.5-9.3c2.3-2.9,6.2-3.7,9.8-3.9v0
		c2.9-0.5,5.6-1.9,7.5-4.4c4.1-5.3,3.1-12.9-2.2-17C74.5,15.7,71.8,14.9,69.1,15z"/>
	<path d="M61.1,81.8L19.3,49.7l7-9.1c1-1.2,2.7-1.5,4-0.5l37.3,28.6c1.2,1,1.5,2.7,0.5,4L61.1,81.8z"/>
	<rect x="16.5" y="65.9" transform="matrix(0.7934 0.6088 -0.6088 0.7934 49.9975 -8.0435)" width="40.8" height="7.5"/>
</g>
</svg>
