<?xml version="1.0" encoding="utf-8"?>
<!-- Generator: Adobe Illustrator 21.1.0, SVG Export Plug-In . SVG Version: 6.00 Build 0)  -->
<svg version="1.1" id="Layer_1" xmlns="http://www.w3.org/2000/svg" xmlns:xlink="http://www.w3.org/1999/xlink" x="0px" y="0px"
	 viewBox="0 0 100 100" style="enable-background:new 0 0 100 100;" xml:space="preserve">
<g>
	<path d="M47.5,19.4c0,0.8-0.7,1.6-1.6,1.6H25.6c-0.8,0-1.6-0.7-1.6-1.6c0-0.9,0.7-1.6,1.6-1.6h20.3C46.8,17.9,47.5,18.5,47.5,19.4z
		"/>
	<path d="M39.5,74L23.7,61.2c-0.6-0.5-1.6-0.5-2.2,0.2C21,62.1,21,63,21.7,63.6l15.7,12.9c0.6,0.5,1.6,0.5,2.2-0.2
		S40.1,74.6,39.5,74z"/>
	<path d="M18.8,48.1V27.8c0-0.8-0.7-1.6-1.6-1.6c-0.9,0-1.6,0.7-1.6,1.6v20.3c0,0.8,0.7,1.6,1.6,1.6C18.1,49.7,18.8,48.9,18.8,48.1z
		"/>
	<path d="M56.4,41.7V27.3c0-0.6-0.7-1.1-1.6-1.1c-0.8,0-1.6,0.5-1.6,1.1v14.4c0,0.6,0.7,1.1,1.6,1.1C55.7,42.8,56.4,42.3,56.4,41.7z
		"/>
	<circle cx="17.2" cy="56.5" r="4.4"/>
	<circle cx="17.2" cy="19.4" r="4.4"/>
	<circle cx="54.9" cy="19.4" r="4.4"/>
	<circle cx="45.2" cy="80.1" r="4.4"/>
	<circle cx="82.8" cy="80.6" r="4.4"/>
	<circle cx="54.9" cy="49.7" r="4.4"/>
	<circle cx="82.8" cy="44.3" r="4.4"/>
	<path d="M75.7,80.1c0,0.8-0.7,1.6-1.6,1.6H53.8c-0.8,0-1.6-0.7-1.6-1.6s0.7-1.6,1.6-1.6h20.3C75.1,78.6,75.7,79.2,75.7,80.1z"/>
	<path d="M84.3,73.1V52.7c0-0.8-0.7-1.6-1.6-1.6c-0.8,0-1.6,0.7-1.6,1.6v20.3c0,0.8,0.7,1.6,1.6,1.6C83.6,74.5,84.3,73.9,84.3,73.1z
		"/>
	<path d="M62.8,50.6l12.8-3.3c0.5-0.1,0.8-0.9,0.6-1.8c-0.2-0.8-0.8-1.4-1.4-1.3L62,47.6c-0.5,0.1-0.8,0.9-0.6,1.8
		C61.7,50.2,62.3,50.7,62.8,50.6z"/>
</g>
</svg>
