<?xml version="1.0" encoding="utf-8"?>
<!-- Generator: Adobe Illustrator 21.1.0, SVG Export Plug-In . SVG Version: 6.00 Build 0)  -->
<svg version="1.1" id="Layer_1" xmlns="http://www.w3.org/2000/svg" xmlns:xlink="http://www.w3.org/1999/xlink" x="0px" y="0px"
	 viewBox="0 0 100 100" style="enable-background:new 0 0 100 100;" xml:space="preserve">
<path stroke="#000" fill="none" stroke-width="2.5" d="M33.6,26.1L33.6,26.1c-0.1,0.6-0.4,1.1-0.8,1.4l0,0c-0.5,0.4-1.1,0.6-1.7,0.6h-0.3c-0.6,0-1.1,0.3-1.3,0.8
	l-0.9,1.9c-0.2,0.4-0.3,0.9-0.2,1.3l0.5,3.9l0.6,2.5c0.1,0.3-0.1,0.6-0.3,0.7l-1,0.6c-0.7,0.4-1,1.2-0.7,1.9l2.6,6.7v0
	c0,1-0.9,1.8-1.9,1.8h-1.5l-4.3-2.8c-0.5-0.3-1-0.4-1.6-0.2l-5.1,1.5c-0.4,0.1-0.7,0.5-0.7,1l0,0c0,0.7,0.4,1.4,1.1,1.7l2.1,1
	c0.6,0.3,1,0.8,1.1,1.5l0.3,2.4c0,0.2,0.1,0.4,0.2,0.6l5,10.7c0.4,0.8,1.2,1.2,2,1l5.5-1.4c1.1-0.3,1.5-1.5,0.9-2.4l-3-4.1
	c-0.3-0.5-0.5-1.1-0.4-1.7l0.1-0.5c0.1-1,1.2-1.7,2.2-1.2l11,5.3c0.6,0.3,1,0.8,1.3,1.3l2.5,6c0.1,0.3,0.4,0.4,0.7,0.4l0,0
	c0.9,0,1.7-0.5,2.1-1.3l0.6-1.2c0.1-0.2,0.2-0.3,0.3-0.4l3.8-3.8c0.4-0.4,0.9-0.6,1.4-0.5l0,0c0.7,0.1,1.3,0.5,1.6,1.2l0.7,1.9
	l2.2,2.9c0.2,0.2,0.3,0.4,0.3,0.7l1,4.8c0.1,0.5,0.4,1,0.9,1.2l1.7,1.1c0.5,0.3,1,0.3,1.5,0l0,0c0.5-0.3,0.8-0.9,0.7-1.5l-0.3-2.8
	c0-0.4,0-0.8,0.3-1.1l0.1-0.2c0.4-0.6,1.1-0.9,1.8-0.8l0.1,0c0.9,0.1,1.7-0.5,1.9-1.3l0.1-0.3c0.2-0.9-0.1-1.8-0.8-2.4l-1.3-1.2
	c-1-0.9-0.8-2.6,0.5-3.2l1.9-1c0.8-0.4,1.3-1.3,1.3-2.2l-0.5-7.4c0-0.7,0.1-1.4,0.4-2l2.2-4.7c0.2-0.3,0.2-0.7,0.2-1.1v-3.1
	c0-0.7-0.2-1.3-0.5-1.9l-1.3-2.3c-0.4-0.6,0-1.4,0.6-1.6l0.8-0.2c0.6-0.2,1.2-0.2,1.8,0l1.8,0.6c0.2,0.1,0.3,0.1,0.5,0.2l4.6,2.7
	c0.4,0.3,1,0.2,1.3-0.2l0,0c0.5-0.7,0.6-1.6,0.3-2.3l-0.6-1.2c-0.3-0.6-0.2-1.3,0.2-1.9l0.9-1.1c0.6-0.8,0.3-2-0.6-2.3L76.5,26
	c-0.2-0.1-0.4-0.1-0.7-0.1l-30.4-1.6c-0.2,0-0.5-0.1-0.7-0.2l-1.6-0.8c-0.4-0.2-0.8-0.3-1.2-0.2l-6.3,1C34.6,24.2,33.8,25,33.6,26.1
	z"/>
</svg>
