<?xml version="1.0" encoding="utf-8"?>
<!-- Generator: Adobe Illustrator 21.1.0, SVG Export Plug-In . SVG Version: 6.00 Build 0)  -->
<svg version="1.1" id="Layer_2" xmlns="http://www.w3.org/2000/svg" xmlns:xlink="http://www.w3.org/1999/xlink" x="0px" y="0px"
	 viewBox="0 0 100 100" style="enable-background:new 0 0 100 100;" xml:space="preserve">
<style type="text/css">
	.st0{fill:none;stroke:#000;stroke-width:2.5;stroke-miterlimit:10;}
</style>
<g>
	<path class="st0" d="M50,15.1c0.2-0.2,0.4-0.2,0.6,0l19.1,20.4L79.7,46c0.2,0.2,0.1,0.7-0.3,0.7H20.5c-0.3,0-0.5-0.4-0.3-0.7
		L50,15.1z"/>
	<path class="st0" d="M70,35.2V26c0-0.2,0.2-0.4,0.4-0.4H75c0.2,0,0.4,0.2,0.4,0.4v15.2"/>
	<polyline class="st0" points="24.2,46.9 24.2,85 75.8,85 75.8,46.9 	"/>
	<path class="st0" d="M44.5,84.7V66.4c0-0.2,0.2-0.4,0.4-0.4h10.4c0.2,0,0.4,0.2,0.4,0.4v18.3"/>
</g>
</svg>
